<svg width="253" height="104" viewBox="0 0 253 104" fill="none" xmlns="http://www.w3.org/2000/svg">
<g filter="url(#filter0_d_8_44)">
<rect x="15" y="49" width="168" height="41" rx="20.5" fill="white"/>
<rect x="17" y="51" width="164" height="37" rx="18.5" stroke="#4285F4" stroke-opacity="0.8" stroke-width="4"/>
<rect x="4" y="28" width="201" height="41" rx="20.5" fill="white"/>
<rect x="6" y="30" width="197" height="37" rx="18.5" stroke="#4285F4" stroke-opacity="0.8" stroke-width="4"/>
<ellipse cx="55" cy="48" rx="51" ry="46" fill="white"/>
<path d="M55 0C83.1673 0 106 21.4896 106 48C106 74.5104 83.1673 96 55 96C26.8327 96 4 74.5104 4 48C4 21.4896 26.8327 0 55 0ZM55 6.696C43.3608 6.696 32.1984 11.0477 23.9683 18.7937C15.7381 26.5397 11.1145 37.0455 11.1145 48C11.1145 58.9545 15.7381 69.4603 23.9683 77.2063C32.1984 84.9523 43.3608 89.304 55 89.304C66.6392 89.304 77.8016 84.9523 86.0317 77.2063C94.2619 69.4603 98.8855 58.9545 98.8855 48C98.8855 37.0455 94.2619 26.5397 86.0317 18.7937C77.8016 11.0477 66.6392 6.696 55 6.696ZM65.4448 16.7424C68.7605 17.9224 71.8609 19.5806 74.635 21.6576C75.2725 22.1184 75.8845 22.608 76.4863 23.1312C76.5985 23.2224 76.6954 23.3184 76.8025 23.4192C78.4753 24.8736 79.9951 26.5104 81.3415 28.2672C81.5302 28.512 81.7291 28.7376 81.9025 28.9728C82.2289 29.424 82.5349 29.8944 82.8409 30.3648C83.3672 31.1582 83.8523 31.9752 84.2944 32.8128C84.5647 33.2928 84.8044 33.816 85.0543 34.3248C85.2226 34.6752 85.4113 35.0352 85.5643 35.4096C85.9366 36.2832 86.2681 37.1616 86.569 38.0592C86.6659 38.3568 86.7424 38.6736 86.8342 38.9712C87.3516 40.6791 87.7183 42.4242 87.9307 44.1888C87.9664 44.5056 88.0174 44.8416 88.0429 45.1536C88.1449 46.1856 88.2112 47.2272 88.2112 48.2736C88.2047 50.3182 88.005 52.3583 87.6145 54.3696C87.5431 54.72 87.4819 55.0752 87.4105 55.4112C87.2065 56.3232 86.9719 57.216 86.6965 58.0992C84.1006 56.9808 81.0508 55.3344 80.2552 53.5248C78.8068 50.2608 74.9512 48.6288 73.3804 44.424C70.7947 37.464 74.227 37.6464 74.7064 33.3264C74.9308 31.3008 73.3804 30.8784 71.3353 31.704C66.5617 33.5904 64.945 32.8656 63.9811 29.4816C63.0172 26.1072 63.9811 25.1664 63.9811 25.1664C60.7273 25.5024 60.6049 21.7728 62.293 20.832C63.466 20.1984 64.4605 18.2544 65.4448 16.7424ZM51.8074 37.4256C54.8164 36.1296 57.5959 35.664 57.2287 33.4368C56.8717 31.2336 56.0251 29.592 51.3229 29.592C46.6207 29.592 48.6709 35.664 44.8153 32.04C40.9597 28.44 45.6568 29.3712 47.5846 28.5504C49.5175 27.7248 51.4453 24.3408 48.0691 24.1008C44.698 23.8752 45.4171 25.5024 42.7651 24.5808C40.1131 23.64 38.9095 27.84 37.2163 27.2544C36.1045 26.8608 33.121 24.7008 31.1422 22.5744C27.1044 25.8798 23.9077 29.9974 21.7888 34.6224C22.3651 40.896 25.8892 44.1888 25.8892 44.1888C25.8892 44.1888 27.6997 48.2736 38.5525 53.2944C38.5525 53.2944 40.5925 53.4096 38.1853 51.0816C35.7781 48.744 33.121 45.8256 36.1351 44.3136C39.1441 42.7824 39.9958 42.912 40.72 45.72C41.4391 48.5232 43.8565 46.872 44.0911 44.1888C44.3359 41.5152 48.7933 38.7168 51.8074 37.4208V37.4256ZM49.5124 51.5376C54.7042 51.5376 54.2197 53.0592 58.3201 56.4576C62.4154 59.8368 60.2479 63.2208 58.1926 65.7936C56.1475 68.3568 54.337 71.2656 53.3731 76.536C52.4041 81.7872 49.8745 78.0432 49.0381 76.7616C48.1915 75.4704 46.8655 74.3088 47.2327 68.9376C47.5897 63.5712 43.729 66.7296 42.4081 59.7216C41.0821 52.7232 44.3359 51.5424 49.5175 51.5424L49.5124 51.5376ZM74.8951 56.1648C76.2772 55.3344 79.5871 57.4992 78.8731 59.7792C78.1438 62.0592 75.859 60.7728 74.7115 59.7792C73.564 58.7904 73.5028 56.9808 74.8951 56.1648Z" fill="#4285F4"/>
<path d="M113.113 51.375V41.6484C113.289 40.2617 113.885 39.041 114.9 37.9863C115.975 36.8926 117.293 36.3457 118.855 36.3457V40.4766C118.016 40.4961 117.498 40.8965 117.303 41.6777C117.264 41.8535 117.244 42 117.244 42.1172V51.375C117.264 52.1758 117.713 52.7031 118.592 52.957C118.709 52.9961 118.797 53.0156 118.855 53.0156V57.1465C117.723 57.1465 116.59 56.7461 115.457 55.9453C113.914 54.8125 113.133 53.2891 113.113 51.375ZM120.438 57.1465V53.0156C120.652 53.0156 120.926 52.8398 121.258 52.4883C121.551 52.1562 121.697 51.8047 121.697 51.4336V50.4668H120.438V46.6582H125.857V51.8438C125.857 53.0547 125.232 54.2461 123.982 55.418C122.791 56.5508 121.609 57.127 120.438 57.1465ZM120.438 40.4766V36.3457C121.883 36.3457 123.172 36.9707 124.305 38.2207C125.34 39.334 125.857 40.5547 125.857 41.8828L121.814 43.377V42.2344C121.814 41.3164 121.463 40.75 120.76 40.5352C120.643 40.4961 120.535 40.4766 120.438 40.4766ZM130.484 57V36.0234H134.703V57H130.484ZM139.446 52.5762V40.3008H143.431V52.1074C143.47 52.8496 143.919 53.2305 144.779 53.25V57.1465C142.864 57.1465 141.37 56.3945 140.296 54.8906C139.73 54.0898 139.446 53.3184 139.446 52.5762ZM146.126 57.1465V53.25C146.966 53.1523 147.425 52.7715 147.503 52.1074V40.3008H151.487V52.5762C151.487 53.4941 151.058 54.4219 150.198 55.3594C149.105 56.5312 147.747 57.127 146.126 57.1465ZM156.231 57V36.0234H160.274V57H156.231ZM161.827 57V53.1914H162.882C162.999 53.1914 163.106 53.1816 163.204 53.1621C163.321 53.123 163.419 53.084 163.497 53.0449C163.575 53.0059 163.643 52.957 163.702 52.8984C163.761 52.8398 163.8 52.7812 163.819 52.7227C163.858 52.6641 163.888 52.6152 163.907 52.5762C163.927 52.5176 163.946 52.4688 163.966 52.4297V52.4004V44.9004C163.966 44.666 163.819 44.4609 163.526 44.2852C163.35 44.1875 163.145 44.1289 162.911 44.1094H161.827V40.3008H162.882C164.639 40.3008 166.016 41.0723 167.013 42.6152C167.501 43.377 167.755 44.0996 167.774 44.7832V52.459C167.774 53.3379 167.393 54.2461 166.632 55.1836C165.636 56.375 164.386 56.9805 162.882 57H161.827ZM171.258 40.3008H175.477L179.373 53.3086L176.18 62.8594H172.137L175.067 53.25L171.258 40.3008ZM178.114 44.2266L179.344 40.3008H183.563L180.252 50.2031H179.871L178.114 44.2266Z" fill="black" fill-opacity="0.8"/>
<path d="M117.352 74.8945C117.352 74.3086 117.594 73.7969 118.078 73.3594C118.5 72.9844 118.973 72.7969 119.496 72.7969V74.3203C119.277 74.3203 119.09 74.418 118.934 74.6133C118.824 74.7695 118.77 74.9531 118.77 75.1641L117.352 74.8945ZM117.598 81V79.3828H122.332V81H117.598ZM117.598 78.7734C117.598 78.25 117.945 77.7227 118.641 77.1914C118.742 77.1133 118.898 77 119.109 76.8516C119.305 76.7188 119.441 76.6211 119.52 76.5586C119.598 76.4961 119.719 76.4062 119.883 76.2891C120.398 75.9219 120.715 75.6367 120.832 75.4336C120.895 75.3164 120.926 75.207 120.926 75.1055C120.926 74.6992 120.738 74.4492 120.363 74.3555C120.285 74.332 120.211 74.3203 120.141 74.3203V72.7969C121.133 72.7969 121.82 73.1836 122.203 73.957C122.367 74.3008 122.449 74.6797 122.449 75.0938C122.449 75.7031 122.242 76.2227 121.828 76.6523C121.625 76.8633 121.355 77.0898 121.02 77.332C120.895 77.4258 120.707 77.5508 120.457 77.707C119.957 78.043 119.652 78.293 119.543 78.457C119.48 78.5664 119.449 78.6719 119.449 78.7734H117.598ZM126.362 81C125.245 81 124.542 80.2227 124.253 78.668C124.159 78.1523 124.112 77.5625 124.112 76.8984C124.112 74.3984 124.749 73.0391 126.023 72.8203C126.132 72.8047 126.245 72.7969 126.362 72.7969V74.3672C125.964 74.4609 125.745 75.0273 125.706 76.0664C125.698 76.2461 125.694 76.4805 125.694 76.7695V77.0273C125.694 78.1055 125.788 78.8008 125.976 79.1133C126.077 79.2852 126.206 79.3906 126.362 79.4297V81ZM127.007 81V79.4297C127.405 79.3359 127.624 78.7695 127.663 77.7305C127.671 77.5508 127.675 77.3164 127.675 77.0273V76.7695C127.675 75.6914 127.581 74.9961 127.394 74.6836C127.292 74.5117 127.163 74.4062 127.007 74.3672V72.7969C128.124 72.7969 128.827 73.5742 129.116 75.1289C129.21 75.6445 129.257 76.2344 129.257 76.8984C129.257 79.3984 128.62 80.7578 127.347 80.9766C127.237 80.9922 127.124 81 127.007 81ZM130.92 74.8945C130.92 74.3086 131.162 73.7969 131.647 73.3594C132.068 72.9844 132.541 72.7969 133.065 72.7969V74.3203C132.846 74.3203 132.658 74.418 132.502 74.6133C132.393 74.7695 132.338 74.9531 132.338 75.1641L130.92 74.8945ZM131.166 81V79.3828H135.9V81H131.166ZM131.166 78.7734C131.166 78.25 131.514 77.7227 132.209 77.1914C132.311 77.1133 132.467 77 132.678 76.8516C132.873 76.7188 133.01 76.6211 133.088 76.5586C133.166 76.4961 133.287 76.4062 133.451 76.2891C133.967 75.9219 134.283 75.6367 134.4 75.4336C134.463 75.3164 134.494 75.207 134.494 75.1055C134.494 74.6992 134.307 74.4492 133.932 74.3555C133.854 74.332 133.779 74.3203 133.709 74.3203V72.7969C134.701 72.7969 135.389 73.1836 135.772 73.957C135.936 74.3008 136.018 74.6797 136.018 75.0938C136.018 75.7031 135.811 76.2227 135.397 76.6523C135.193 76.8633 134.924 77.0898 134.588 77.332C134.463 77.4258 134.275 77.5508 134.025 77.707C133.525 78.043 133.221 78.293 133.111 78.457C133.049 78.5664 133.018 78.6719 133.018 78.7734H131.166ZM137.681 74.8945C137.681 74.3086 137.923 73.7969 138.407 73.3594C138.829 72.9844 139.302 72.7969 139.825 72.7969V74.3203C139.607 74.3203 139.419 74.418 139.263 74.6133C139.153 74.7695 139.099 74.9531 139.099 75.1641L137.681 74.8945ZM137.927 81V79.3828H142.661V81H137.927ZM137.927 78.7734C137.927 78.25 138.275 77.7227 138.97 77.1914C139.071 77.1133 139.228 77 139.439 76.8516C139.634 76.7188 139.771 76.6211 139.849 76.5586C139.927 76.4961 140.048 76.4062 140.212 76.2891C140.728 75.9219 141.044 75.6367 141.161 75.4336C141.224 75.3164 141.255 75.207 141.255 75.1055C141.255 74.6992 141.067 74.4492 140.692 74.3555C140.614 74.332 140.54 74.3203 140.47 74.3203V72.7969C141.462 72.7969 142.15 73.1836 142.532 73.957C142.696 74.3008 142.778 74.6797 142.778 75.0938C142.778 75.7031 142.571 76.2227 142.157 76.6523C141.954 76.8633 141.685 77.0898 141.349 77.332C141.224 77.4258 141.036 77.5508 140.786 77.707C140.286 78.043 139.982 78.293 139.872 78.457C139.81 78.5664 139.778 78.6719 139.778 78.7734H137.927Z" fill="black" fill-opacity="0.9"/>
</g>
<defs>
<filter id="filter0_d_8_44" x="0" y="0" width="209" height="104" filterUnits="userSpaceOnUse" color-interpolation-filters="sRGB">
<feFlood flood-opacity="0" result="BackgroundImageFix"/>
<feColorMatrix in="SourceAlpha" type="matrix" values="0 0 0 0 0 0 0 0 0 0 0 0 0 0 0 0 0 0 127 0" result="hardAlpha"/>
<feOffset dy="4"/>
<feGaussianBlur stdDeviation="2"/>
<feComposite in2="hardAlpha" operator="out"/>
<feColorMatrix type="matrix" values="0 0 0 0 0 0 0 0 0 0 0 0 0 0 0 0 0 0 0.25 0"/>
<feBlend mode="normal" in2="BackgroundImageFix" result="effect1_dropShadow_8_44"/>
<feBlend mode="normal" in="SourceGraphic" in2="effect1_dropShadow_8_44" result="shape"/>
</filter>
</defs>
</svg>
